<svg fill="none" height="24" viewBox="0 0 24 24" width="24" xmlns="http://www.w3.org/2000/svg"><path d="m17 14.75v4.5m-5.75 0h-5.46835c-.56451 0-1.00869-.4683-.8962-1.0215.31056-1.5273 1.32482-4.2285 4.61451-4.2285.67444 0 1.25324.0563 1.75004.25m8 2.75h-4.5m0-6.75c1.5187 0 2.5-1.23122 2.5-2.75s-.9813-2.75-2.5-2.75m-2.5 2.75c0 1.51878-1.2313 2.75-2.75004 2.75-1.51878 0-2.75-1.23122-2.75-2.75s1.23122-2.75 2.75-2.75c1.51874 0 2.75004 1.23122 2.75004 2.75z" stroke="#141414" stroke-linecap="round" stroke-linejoin="round" stroke-width="1.5"/></svg>